<svg width="135" height="44" viewBox="0 0 135 44" fill="none" xmlns="http://www.w3.org/2000/svg">
<path d="M29.6171 5.86613C29.6171 8.35285 27.6013 10.3687 25.1145 10.3687C22.6278 10.3687 20.6119 8.35285 20.6119 5.86613C20.6119 3.37941 22.6278 1.36353 25.1145 1.36353C27.6013 1.36353 29.6171 3.37941 29.6171 5.86613Z" fill="#1ABCFE"/>
<path d="M19.3289 16.3121C19.3289 18.7988 17.313 20.8147 14.8263 20.8147C12.3396 20.8147 10.3237 18.7988 10.3237 16.3121C10.3237 13.8254 12.3396 11.8095 14.8263 11.8095C17.313 11.8095 19.3289 13.8254 19.3289 16.3121Z" fill="#FF9E29"/>
<path d="M9.00521 5.86613C9.00521 8.35285 6.98933 10.3687 4.50261 10.3687C2.01589 10.3687 0 8.35285 0 5.86613C0 3.37941 2.01589 1.36353 4.50261 1.36353C6.98933 1.36353 9.00521 3.37941 9.00521 5.86613Z" fill="#11AA73"/>
<path d="M9.00521 26.5925C9.00521 29.0792 6.98933 31.0951 4.50261 31.0951C2.01589 31.0951 0 29.0792 0 26.5925C0 24.1057 2.01589 22.0899 4.50261 22.0899C6.98933 22.0899 9.00521 24.1057 9.00521 26.5925Z" fill="#5423E7"/>
<path d="M9.00521 36.8609C9.00521 39.3476 6.98933 41.3635 4.50261 41.3635C2.01589 41.3635 0 39.3476 0 36.8609C0 34.3742 2.01589 32.3583 4.50261 32.3583C6.98933 32.3583 9.00521 34.3742 9.00521 36.8609Z" fill="#5423E7"/>
<path d="M18.6651 11.2277C17.7824 10.345 16.3993 10.2746 15.1543 10.3643C15.0459 10.3721 14.9365 10.3761 14.8261 10.3761C12.3394 10.3761 10.3235 8.36017 10.3235 5.87345C10.3235 3.38673 12.3394 1.37085 14.8261 1.37085C17.3128 1.37085 19.3287 3.38673 19.3287 5.87345C19.3287 6.00364 19.3232 6.13255 19.3124 6.25994C19.2044 7.5295 19.2584 8.94882 20.1593 9.84977L21.2357 10.9261C22.1294 11.8198 23.5343 11.8804 24.7942 11.7797C24.9142 11.7701 25.0354 11.7653 25.1578 11.7653C27.6445 11.7653 29.6604 13.7811 29.6604 16.2679C29.6604 18.7546 27.6445 20.7705 25.1578 20.7705C22.6711 20.7705 20.6552 18.7546 20.6552 16.2679C20.6552 16.1496 20.6598 16.0324 20.6687 15.9164C20.7656 14.6616 20.7016 13.2642 19.8117 12.3743L18.6651 11.2277Z" fill="#5423E7"/>
<path d="M8.34185 21.5528C7.45916 20.6701 6.07606 20.5997 4.83098 20.6893C4.72261 20.6971 4.61318 20.7011 4.50282 20.7011C2.0161 20.7011 0.000214577 18.6852 0.000214577 16.1985C0.000214577 13.7118 2.0161 11.6959 4.50282 11.6959C6.98954 11.6959 9.00543 13.7118 9.00543 16.1985C9.00543 16.3287 8.9999 16.4576 8.98907 16.585C8.88114 17.8546 8.93509 19.2739 9.83604 20.1748L10.9124 21.2512C11.8061 22.1449 13.211 22.2055 14.4709 22.1048C14.5909 22.0952 14.7121 22.0903 14.8345 22.0903C17.3212 22.0903 19.3371 24.1062 19.3371 26.5929C19.3371 29.0796 17.3212 31.0955 14.8345 31.0955C12.3478 31.0955 10.3319 29.0796 10.3319 26.5929C10.3319 26.4746 10.3365 26.3574 10.3454 26.2415C10.4423 24.9867 10.3783 23.5892 9.48841 22.6993L8.34185 21.5528Z" fill="#5423E7"/>
<path d="M43.1604 25.3754V1.37133H52.6308C54.4514 1.37133 56.0024 1.71904 57.2839 2.41448C58.5654 3.10209 59.5421 4.05929 60.2141 5.28606C60.8939 6.50502 61.2338 7.91151 61.2338 9.50553C61.2338 11.0996 60.89 12.506 60.2024 13.725C59.5148 14.944 58.5185 15.8933 57.2136 16.5731C55.9165 17.2529 54.3459 17.5929 52.5018 17.5929H48.2355V13.5257H51.6814C52.6581 13.5257 53.4629 13.3578 54.0959 13.0218C54.7366 12.6779 55.2132 12.2052 55.5258 11.6035C55.8462 10.9941 56.0063 10.2947 56.0063 9.50553C56.0063 8.70852 55.8462 8.01309 55.5258 7.41924C55.2132 6.81757 54.7366 6.35265 54.0959 6.02447C53.4551 5.68847 52.6425 5.52048 51.6579 5.52048H48.2355V25.3754H43.1604Z" fill="black"/>
<path d="M70.8657 25.7271C69.0138 25.7271 67.4198 25.352 66.0836 24.6019C64.7553 23.8439 63.7316 22.7734 63.0128 21.3904C62.2939 19.9995 61.9345 18.3547 61.9345 16.4559C61.9345 14.6041 62.2939 12.9788 63.0128 11.5801C63.7316 10.1814 64.7435 9.0914 66.0485 8.31001C67.3612 7.52863 68.9005 7.13794 70.6664 7.13794C71.8541 7.13794 72.9598 7.32938 73.9834 7.71226C75.0148 8.08732 75.9134 8.65382 76.6792 9.41177C77.4527 10.1697 78.0544 11.123 78.4842 12.2716C78.9139 13.4124 79.1288 14.7486 79.1288 16.2801V17.6515H66.8689V14.5572H74.4288C74.4288 13.8383 74.2725 13.2015 73.96 12.6467C73.6474 12.0919 73.2137 11.6582 72.659 11.3457C72.112 11.0253 71.4752 10.8651 70.7485 10.8651C69.9905 10.8651 69.3185 11.0409 68.7325 11.3926C68.1543 11.7364 67.7011 12.2013 67.3729 12.7873C67.0447 13.3656 66.8767 14.0102 66.8689 14.7213V17.6632C66.8689 18.554 67.033 19.3236 67.3612 19.9722C67.6972 20.6207 68.1699 21.1208 68.7794 21.4724C69.3889 21.824 70.1116 21.9999 70.9477 21.9999C71.5025 21.9999 72.0104 21.9217 72.4714 21.7654C72.9324 21.6092 73.327 21.3747 73.6552 21.0622C73.9834 20.7496 74.2334 20.3668 74.4053 19.9136L79.0233 20.2183C78.7889 21.3279 78.3084 22.2968 77.5817 23.125C76.8628 23.9455 75.9329 24.5862 74.7921 25.0472C73.6591 25.5005 72.3503 25.7271 70.8657 25.7271Z" fill="black"/>
<path d="M85.895 14.9674V25.3754H80.9019V7.37235H85.6605V10.5487H85.8715C86.27 9.50162 86.9381 8.67336 87.8758 8.06388C88.8134 7.44659 89.9503 7.13794 91.2865 7.13794C92.5367 7.13794 93.6268 7.41143 94.5566 7.95839C95.4864 8.50536 96.2092 9.28674 96.7249 10.3025C97.2406 11.3105 97.4985 12.5139 97.4985 13.9125V25.3754H92.5055V14.8033C92.5133 13.7016 92.232 12.842 91.6616 12.2247C91.0912 11.5996 90.3059 11.2871 89.3057 11.2871C88.6337 11.2871 88.0399 11.4316 87.5242 11.7208C87.0163 12.0099 86.6177 12.4318 86.3286 12.9866C86.0473 13.5336 85.9028 14.1938 85.895 14.9674Z" fill="black"/>
<path d="M108.083 25.7271C106.239 25.7271 104.652 25.3364 103.324 24.555C102.004 23.7658 100.988 22.6718 100.277 21.2732C99.5734 19.8745 99.2218 18.2648 99.2218 16.4442C99.2218 14.6002 99.5773 12.9827 100.288 11.5918C101.007 10.1931 102.027 9.10312 103.348 8.32173C104.668 7.53254 106.239 7.13794 108.059 7.13794C109.63 7.13794 111.005 7.42314 112.185 7.99355C113.365 8.56396 114.299 9.36488 114.986 10.3963C115.674 11.4277 116.053 12.6389 116.123 14.0297H111.411C111.279 13.1311 110.927 12.4084 110.357 11.8614C109.794 11.3066 109.056 11.0292 108.141 11.0292C107.368 11.0292 106.692 11.2402 106.114 11.6622C105.543 12.0763 105.098 12.6819 104.777 13.4789C104.457 14.2759 104.297 15.2409 104.297 16.3739C104.297 17.5225 104.453 18.4993 104.766 19.3041C105.086 20.1089 105.535 20.7223 106.114 21.1442C106.692 21.5662 107.368 21.7772 108.141 21.7772C108.712 21.7772 109.224 21.66 109.677 21.4255C110.138 21.1911 110.517 20.8512 110.814 20.4058C111.118 19.9526 111.318 19.4096 111.411 18.7766H116.123C116.045 20.1519 115.67 21.363 114.998 22.4101C114.334 23.4493 113.416 24.262 112.244 24.848C111.071 25.434 109.685 25.7271 108.083 25.7271Z" fill="black"/>
<path d="M117.835 25.3754V7.37235H122.828V25.3754H117.835ZM120.343 5.05164C119.601 5.05164 118.964 4.80551 118.432 4.31324C117.909 3.81315 117.647 3.21539 117.647 2.51996C117.647 1.83234 117.909 1.2424 118.432 0.750129C118.964 0.250043 119.601 0 120.343 0C121.085 0 121.718 0.250043 122.242 0.750129C122.773 1.2424 123.039 1.83234 123.039 2.51996C123.039 3.21539 122.773 3.81315 122.242 4.31324C121.718 4.80551 121.085 5.05164 120.343 5.05164Z" fill="black"/>
<path d="M131.16 1.37133V25.3754H126.167V1.37133H131.16Z" fill="black"/>
<path d="M40.9324 41.7271H39.8841L42.2396 35.1816H43.3806L45.736 41.7271H44.6877L42.8372 36.3705H42.7861L40.9324 41.7271ZM41.1082 39.1638H44.5088V39.9948H41.1082V39.1638ZM48.7931 41.7271V35.1816H51.1901C51.6546 35.1816 52.0392 35.2583 52.3439 35.4117C52.6486 35.563 52.8766 35.7686 53.0278 36.0285C53.1791 36.2864 53.2547 36.5772 53.2547 36.9011C53.2547 37.1738 53.2047 37.4039 53.1045 37.5914C53.0044 37.7768 52.8702 37.9259 52.7018 38.0388C52.5356 38.1496 52.3524 38.2306 52.1521 38.2817V38.3457C52.3694 38.3563 52.5815 38.4266 52.7881 38.5566C52.9969 38.6844 53.1695 38.8666 53.3059 39.1031C53.4422 39.3396 53.5104 39.6273 53.5104 39.966C53.5104 40.3006 53.4316 40.601 53.2739 40.8673C53.1184 41.1315 52.8776 41.3414 52.5516 41.4969C52.2256 41.6503 51.8091 41.7271 51.302 41.7271H48.7931ZM49.7807 40.8801H51.2061C51.6791 40.8801 52.0179 40.7885 52.2224 40.6052C52.427 40.422 52.5292 40.193 52.5292 39.9181C52.5292 39.7114 52.477 39.5218 52.3726 39.3492C52.2682 39.1766 52.1191 39.0392 51.9252 38.9369C51.7334 38.8347 51.5055 38.7835 51.2413 38.7835H49.7807V40.8801ZM49.7807 38.0133H51.1038C51.3254 38.0133 51.5246 37.9707 51.7015 37.8854C51.8805 37.8002 52.0221 37.6809 52.1266 37.5275C52.2331 37.3719 52.2864 37.1887 52.2864 36.9778C52.2864 36.7072 52.1915 36.4802 52.0019 36.297C51.8123 36.1138 51.5214 36.0221 51.1294 36.0221H49.7807V38.0133ZM54.4701 41.7271V36.818H55.3937V37.5978H55.4449C55.5343 37.3336 55.692 37.1258 55.9179 36.9746C56.1458 36.8212 56.4037 36.7445 56.6913 36.7445C56.751 36.7445 56.8213 36.7466 56.9022 36.7508C56.9853 36.7551 57.0503 36.7604 57.0972 36.7668V37.6809C57.0588 37.6702 56.9907 37.6585 56.8927 37.6457C56.7946 37.6308 56.6966 37.6234 56.5986 37.6234C56.3728 37.6234 56.1714 37.6713 55.9946 37.7672C55.8199 37.8609 55.6814 37.992 55.5791 38.1603C55.4768 38.3265 55.4257 38.5161 55.4257 38.7292V41.7271H54.4701ZM59.1738 41.8357C58.8628 41.8357 58.5815 41.7782 58.3301 41.6631C58.0787 41.5459 57.8795 41.3766 57.7324 41.155C57.5876 40.9334 57.5151 40.6617 57.5151 40.34C57.5151 40.063 57.5684 39.835 57.6749 39.656C57.7814 39.4771 57.9253 39.3354 58.1064 39.231C58.2875 39.1266 58.4899 39.0477 58.7136 38.9945C58.9373 38.9412 59.1653 38.9007 59.3976 38.873C59.6916 38.8389 59.9302 38.8112 60.1135 38.7899C60.2967 38.7665 60.4299 38.7292 60.513 38.678C60.5961 38.6269 60.6376 38.5438 60.6376 38.4288V38.4064C60.6376 38.1273 60.5588 37.911 60.4011 37.7576C60.2456 37.6042 60.0133 37.5275 59.7044 37.5275C59.3827 37.5275 59.1291 37.5989 58.9437 37.7416C58.7605 37.8822 58.6337 38.0388 58.5634 38.2114L57.6653 38.0069C57.7719 37.7086 57.9274 37.4678 58.1319 37.2846C58.3386 37.0992 58.5762 36.965 58.8447 36.8819C59.1131 36.7967 59.3954 36.754 59.6916 36.754C59.8876 36.754 60.0954 36.7775 60.3148 36.8244C60.5364 36.8691 60.7431 36.9522 60.9349 37.0736C61.1287 37.1951 61.2875 37.3687 61.4111 37.5946C61.5346 37.8183 61.5964 38.1092 61.5964 38.4671V41.7271H60.6632V41.0559H60.6248C60.563 41.1795 60.4704 41.3009 60.3468 41.4202C60.2232 41.5396 60.0645 41.6386 59.8706 41.7175C59.6767 41.7963 59.4444 41.8357 59.1738 41.8357ZM59.3816 41.0687C59.6458 41.0687 59.8716 41.0165 60.0591 40.9121C60.2488 40.8077 60.3926 40.6713 60.4906 40.503C60.5907 40.3325 60.6408 40.1503 60.6408 39.9565V39.3236C60.6067 39.3577 60.5407 39.3897 60.4427 39.4195C60.3468 39.4472 60.2371 39.4717 60.1135 39.493C59.9899 39.5122 59.8695 39.5303 59.7523 39.5474C59.6351 39.5623 59.5371 39.5751 59.4583 39.5857C59.2729 39.6092 59.1035 39.6486 58.9501 39.704C58.7988 39.7594 58.6774 39.8393 58.5858 39.9437C58.4963 40.0459 58.4515 40.1823 58.4515 40.3528C58.4515 40.5893 58.5389 40.7682 58.7136 40.8897C58.8883 41.009 59.111 41.0687 59.3816 41.0687ZM63.6899 38.8123V41.7271H62.7342V36.818H63.6515V37.617H63.7122C63.8252 37.357 64.002 37.1482 64.2428 36.9905C64.4857 36.8329 64.7914 36.754 65.16 36.754C65.4945 36.754 65.7875 36.8244 66.0389 36.965C66.2904 37.1035 66.4853 37.3101 66.6238 37.585C66.7623 37.8599 66.8315 38.1997 66.8315 38.6045V41.7271H65.8759V38.7196C65.8759 38.3638 65.7833 38.0857 65.5979 37.8854C65.4125 37.683 65.1579 37.5818 64.834 37.5818C64.6124 37.5818 64.4154 37.6297 64.2428 37.7256C64.0723 37.8215 63.937 37.9621 63.8369 38.1475C63.7389 38.3307 63.6899 38.5523 63.6899 38.8123ZM69.8159 41.8229C69.4196 41.8229 69.0659 41.7217 68.7548 41.5193C68.4458 41.3148 68.2029 41.0239 68.0261 40.6468C67.8514 40.2675 67.764 39.8126 67.764 39.2821C67.764 38.7516 67.8524 38.2977 68.0293 37.9206C68.2083 37.5435 68.4533 37.2547 68.7644 37.0545C69.0755 36.8542 69.4281 36.754 69.8223 36.754C70.1269 36.754 70.372 36.8052 70.5573 36.9074C70.7448 37.0076 70.8897 37.1248 70.992 37.259C71.0964 37.3932 71.1774 37.5115 71.2349 37.6138H71.2924V35.1816H72.248V41.7271H71.3148V40.9632H71.2349C71.1774 41.0676 71.0943 41.1869 70.9856 41.3212C70.8791 41.4554 70.7321 41.5726 70.5446 41.6727C70.3571 41.7729 70.1142 41.8229 69.8159 41.8229ZM70.0268 41.0079C70.3017 41.0079 70.5339 40.9355 70.7235 40.7906C70.9153 40.6436 71.0602 40.4401 71.1582 40.1802C71.2583 39.9202 71.3084 39.6177 71.3084 39.2725C71.3084 38.9316 71.2594 38.6333 71.1614 38.3776C71.0634 38.1219 70.9196 37.9227 70.7299 37.78C70.5403 37.6372 70.3059 37.5658 70.0268 37.5658C69.7392 37.5658 69.4995 37.6404 69.3077 37.7896C69.1159 37.9387 68.9711 38.1422 68.873 38.4C68.7772 38.6578 68.7292 38.9486 68.7292 39.2725C68.7292 39.6006 68.7782 39.8957 68.8762 40.1578C68.9742 40.4199 69.1191 40.6276 69.3109 40.781C69.5048 40.9323 69.7434 41.0079 70.0268 41.0079ZM75.7685 36.818V37.585H73.087V36.818H75.7685ZM73.8061 35.6418H74.7617V40.2856C74.7617 40.471 74.7894 40.6106 74.8448 40.7043C74.9002 40.7959 74.9716 40.8588 75.059 40.8929C75.1485 40.9248 75.2454 40.9408 75.3498 40.9408C75.4265 40.9408 75.4936 40.9355 75.5512 40.9248C75.6087 40.9142 75.6534 40.9057 75.6854 40.8993L75.858 41.6887C75.8026 41.71 75.7237 41.7313 75.6215 41.7526C75.5192 41.7761 75.3914 41.7888 75.238 41.791C74.9865 41.7952 74.7522 41.7505 74.5348 41.6567C74.3175 41.563 74.1417 41.4181 74.0075 41.2221C73.8732 41.0261 73.8061 40.78 73.8061 40.4838V35.6418ZM78.7536 41.8261C78.2699 41.8261 77.8534 41.7228 77.504 41.5161C77.1567 41.3073 76.8882 41.0143 76.6986 40.6372C76.5111 40.2579 76.4173 39.8137 76.4173 39.3045C76.4173 38.8016 76.5111 38.3584 76.6986 37.9749C76.8882 37.5914 77.1524 37.292 77.4912 37.0768C77.8321 36.8616 78.2305 36.754 78.6865 36.754C78.9635 36.754 79.2319 36.7998 79.4919 36.8915C79.7518 36.9831 79.9851 37.1269 80.1918 37.3229C80.3985 37.519 80.5615 37.7736 80.6808 38.0868C80.8001 38.3979 80.8598 38.7761 80.8598 39.2214V39.5601H76.9574V38.8442H79.9233C79.9233 38.5928 79.8722 38.3702 79.7699 38.1763C79.6677 37.9802 79.5238 37.8258 79.3385 37.7128C79.1552 37.5999 78.94 37.5435 78.6929 37.5435C78.4244 37.5435 78.19 37.6095 77.9898 37.7416C77.7916 37.8716 77.6382 38.042 77.5295 38.253C77.423 38.4618 77.3697 38.6887 77.3697 38.9337V39.493C77.3697 39.8212 77.4273 40.1003 77.5423 40.3304C77.6595 40.5605 77.8225 40.7363 78.0313 40.8577C78.2401 40.9771 78.4841 41.0367 78.7632 41.0367C78.9443 41.0367 79.1094 41.0111 79.2586 40.96C79.4077 40.9067 79.5366 40.8279 79.6453 40.7235C79.754 40.6191 79.8371 40.4902 79.8946 40.3368L80.7991 40.4998C80.7266 40.7661 80.5966 40.9994 80.4091 41.1997C80.2238 41.3979 79.9905 41.5523 79.7092 41.6631C79.4301 41.7718 79.1116 41.8261 78.7536 41.8261ZM83.8529 41.8261C83.3778 41.8261 82.9687 41.7185 82.6256 41.5033C82.2847 41.286 82.0226 40.9866 81.8394 40.6052C81.6562 40.2239 81.5645 39.7871 81.5645 39.2949C81.5645 38.7963 81.6583 38.3563 81.8458 37.9749C82.0333 37.5914 82.2975 37.292 82.6384 37.0768C82.9793 36.8616 83.3809 36.754 83.8433 36.754C84.2162 36.754 84.5486 36.8233 84.8405 36.9618C85.1324 37.0981 85.3678 37.2899 85.5468 37.5371C85.7279 37.7842 85.8355 38.0729 85.8696 38.4032H84.9395C84.8884 38.1731 84.7712 37.9749 84.588 37.8087C84.4069 37.6425 84.164 37.5594 83.8593 37.5594C83.593 37.5594 83.3596 37.6297 83.1594 37.7704C82.9612 37.9089 82.8067 38.107 82.6959 38.3648C82.5851 38.6205 82.5297 38.9231 82.5297 39.2725C82.5297 39.6305 82.5841 39.9394 82.6927 40.1994C82.8014 40.4593 82.9548 40.6606 83.153 40.8034C83.3532 40.9462 83.5887 41.0175 83.8593 41.0175C84.0404 41.0175 84.2045 40.9845 84.3515 40.9185C84.5006 40.8503 84.6253 40.7533 84.7254 40.6276C84.8277 40.5019 84.8991 40.3506 84.9395 40.1738H85.8696C85.8355 40.4913 85.7322 40.7746 85.5596 41.0239C85.387 41.2732 85.1558 41.4692 84.866 41.612C84.5784 41.7547 84.2407 41.8261 83.8529 41.8261ZM87.7121 38.8123V41.7271H86.7565V35.1816H87.6993V37.617H87.7601C87.8751 37.3528 88.0509 37.1429 88.2874 36.9873C88.5239 36.8318 88.8329 36.754 89.2143 36.754C89.5509 36.754 89.8449 36.8233 90.0964 36.9618C90.3499 37.1003 90.5459 37.307 90.6844 37.5818C90.8251 37.8545 90.8954 38.1954 90.8954 38.6045V41.7271H89.9398V38.7196C89.9398 38.3595 89.8471 38.0804 89.6617 37.8822C89.4763 37.682 89.2185 37.5818 88.8883 37.5818C88.6624 37.5818 88.46 37.6297 88.281 37.7256C88.1042 37.8215 87.9646 37.9621 87.8623 38.1475C87.7622 38.3307 87.7121 38.5523 87.7121 38.8123ZM99.7956 37.3101H98.7984C98.76 37.0971 98.6887 36.9096 98.5843 36.7476C98.4799 36.5857 98.352 36.4483 98.2007 36.3354C98.0495 36.2224 97.8801 36.1372 97.6926 36.0797C97.5072 36.0222 97.3101 35.9934 97.1013 35.9934C96.7242 35.9934 96.3865 36.0882 96.0882 36.2778C95.792 36.4675 95.5576 36.7455 95.385 37.112C95.2146 37.4785 95.1294 37.9259 95.1294 38.4543C95.1294 38.987 95.2146 39.4366 95.385 39.803C95.5576 40.1695 95.7931 40.4465 96.0914 40.634C96.3897 40.8215 96.7252 40.9153 97.0981 40.9153C97.3048 40.9153 97.5008 40.8876 97.6862 40.8322C97.8737 40.7746 98.0431 40.6905 98.1943 40.5797C98.3456 40.4689 98.4735 40.3336 98.5779 40.1738C98.6844 40.0119 98.7579 39.8265 98.7984 39.6177L99.7956 39.6209C99.7423 39.9426 99.6389 40.2388 99.4855 40.5094C99.3343 40.7778 99.1393 41.0101 98.9007 41.2061C98.6642 41.4 98.3936 41.5502 98.0889 41.6567C97.7842 41.7633 97.4518 41.8165 97.0917 41.8165C96.525 41.8165 96.02 41.6823 95.5768 41.4138C95.1336 41.1432 94.7842 40.7565 94.5285 40.2537C94.275 39.7508 94.1482 39.1511 94.1482 38.4543C94.1482 37.7555 94.276 37.1557 94.5317 36.655C94.7874 36.1521 95.1368 35.7665 95.58 35.498C96.0232 35.2274 96.5271 35.0921 97.0917 35.0921C97.439 35.0921 97.7629 35.1422 98.0633 35.2423C98.3659 35.3403 98.6375 35.4852 98.8783 35.677C99.1191 35.8666 99.3183 36.0989 99.4759 36.3737C99.6336 36.6464 99.7402 36.9586 99.7956 37.3101ZM102.833 41.8261C102.373 41.8261 101.972 41.7207 101.628 41.5097C101.285 41.2988 101.019 41.0037 100.829 40.6244C100.64 40.2452 100.545 39.802 100.545 39.2949C100.545 38.7856 100.64 38.3403 100.829 37.9589C101.019 37.5775 101.285 37.2814 101.628 37.0704C101.972 36.8595 102.373 36.754 102.833 36.754C103.294 36.754 103.695 36.8595 104.038 37.0704C104.381 37.2814 104.648 37.5775 104.837 37.9589C105.027 38.3403 105.122 38.7856 105.122 39.2949C105.122 39.802 105.027 40.2452 104.837 40.6244C104.648 41.0037 104.381 41.2988 104.038 41.5097C103.695 41.7207 103.294 41.8261 102.833 41.8261ZM102.837 41.0239C103.135 41.0239 103.382 40.9451 103.578 40.7874C103.774 40.6297 103.919 40.4199 104.013 40.1578C104.109 39.8957 104.157 39.607 104.157 39.2917C104.157 38.9785 104.109 38.6908 104.013 38.4288C103.919 38.1646 103.774 37.9525 103.578 37.7927C103.382 37.6329 103.135 37.553 102.837 37.553C102.536 37.553 102.287 37.6329 102.089 37.7927C101.893 37.9525 101.747 38.1646 101.651 38.4288C101.557 38.6908 101.51 38.9785 101.51 39.2917C101.51 39.607 101.557 39.8957 101.651 40.1578C101.747 40.4199 101.893 40.6297 102.089 40.7874C102.287 40.9451 102.536 41.0239 102.837 41.0239ZM106.053 41.7271V36.818H106.971V37.617H107.031C107.134 37.3464 107.301 37.1354 107.533 36.9842C107.765 36.8307 108.043 36.754 108.367 36.754C108.695 36.754 108.97 36.8307 109.192 36.9842C109.416 37.1376 109.581 37.3485 109.687 37.617H109.738C109.856 37.3549 110.042 37.1461 110.298 36.9905C110.553 36.8329 110.858 36.754 111.212 36.754C111.657 36.754 112.02 36.8936 112.302 37.1727C112.585 37.4518 112.727 37.8726 112.727 38.4351V41.7271H111.771V38.5246C111.771 38.1922 111.681 37.9515 111.499 37.8023C111.318 37.6532 111.102 37.5786 110.851 37.5786C110.54 37.5786 110.298 37.6745 110.125 37.8663C109.953 38.0559 109.866 38.2998 109.866 38.5981V41.7271H108.914V38.4639C108.914 38.1976 108.831 37.9834 108.665 37.8215C108.498 37.6596 108.282 37.5786 108.016 37.5786C107.835 37.5786 107.667 37.6266 107.514 37.7224C107.363 37.8162 107.24 37.9472 107.146 38.1155C107.055 38.2839 107.009 38.4788 107.009 38.7004V41.7271H106.053ZM113.873 43.568V36.818H114.806V37.6138H114.886C114.941 37.5115 115.021 37.3932 115.125 37.259C115.23 37.1248 115.375 37.0076 115.56 36.9074C115.745 36.8052 115.99 36.754 116.295 36.754C116.691 36.754 117.045 36.8542 117.356 37.0545C117.667 37.2547 117.911 37.5435 118.088 37.9206C118.267 38.2977 118.357 38.7516 118.357 39.2821C118.357 39.8126 118.268 40.2675 118.091 40.6468C117.914 41.0239 117.672 41.3148 117.363 41.5193C117.054 41.7217 116.701 41.8229 116.305 41.8229C116.006 41.8229 115.762 41.7729 115.573 41.6727C115.385 41.5726 115.238 41.4554 115.132 41.3212C115.025 41.1869 114.943 41.0676 114.886 40.9632H114.828V43.568H113.873ZM114.809 39.2725C114.809 39.6177 114.859 39.9202 114.959 40.1802C115.059 40.4401 115.204 40.6436 115.394 40.7906C115.583 40.9355 115.816 41.0079 116.091 41.0079C116.376 41.0079 116.615 40.9323 116.806 40.781C116.998 40.6276 117.143 40.4199 117.241 40.1578C117.341 39.8957 117.391 39.6006 117.391 39.2725C117.391 38.9486 117.342 38.6578 117.244 38.4C117.148 38.1422 117.004 37.9387 116.81 37.7896C116.618 37.6404 116.378 37.5658 116.091 37.5658C115.814 37.5658 115.579 37.6372 115.387 37.78C115.198 37.9227 115.054 38.1219 114.956 38.3776C114.858 38.6333 114.809 38.9316 114.809 39.2725ZM120.721 41.8357C120.41 41.8357 120.129 41.7782 119.877 41.6631C119.626 41.5459 119.426 41.3766 119.279 41.155C119.135 40.9334 119.062 40.6617 119.062 40.34C119.062 40.063 119.115 39.835 119.222 39.656C119.328 39.4771 119.472 39.3354 119.653 39.231C119.834 39.1266 120.037 39.0477 120.261 38.9945C120.484 38.9412 120.712 38.9007 120.945 38.873C121.239 38.8389 121.477 38.8112 121.66 38.7899C121.844 38.7665 121.977 38.7292 122.06 38.678C122.143 38.6269 122.185 38.5438 122.185 38.4288V38.4064C122.185 38.1273 122.106 37.911 121.948 37.7576C121.793 37.6042 121.56 37.5275 121.251 37.5275C120.93 37.5275 120.676 37.5989 120.491 37.7416C120.307 37.8822 120.181 38.0388 120.11 38.2114L119.212 38.0069C119.319 37.7086 119.474 37.4678 119.679 37.2846C119.886 37.0992 120.123 36.965 120.392 36.8819C120.66 36.7967 120.942 36.754 121.239 36.754C121.435 36.754 121.642 36.7775 121.862 36.8244C122.083 36.8691 122.29 36.9522 122.482 37.0736C122.676 37.1951 122.834 37.3687 122.958 37.5946C123.082 37.8183 123.143 38.1092 123.143 38.4671V41.7271H122.21V41.0559H122.172C122.11 41.1795 122.017 41.3009 121.894 41.4202C121.77 41.5396 121.611 41.6386 121.418 41.7175C121.224 41.7963 120.991 41.8357 120.721 41.8357ZM120.929 41.0687C121.193 41.0687 121.419 41.0165 121.606 40.9121C121.796 40.8077 121.94 40.6713 122.038 40.503C122.138 40.3325 122.188 40.1503 122.188 39.9565V39.3236C122.154 39.3577 122.088 39.3897 121.99 39.4195C121.894 39.4472 121.784 39.4717 121.66 39.493C121.537 39.5122 121.417 39.5303 121.299 39.5474C121.182 39.5623 121.084 39.5751 121.005 39.5857C120.82 39.6092 120.651 39.6486 120.497 39.704C120.346 39.7594 120.224 39.8393 120.133 39.9437C120.043 40.0459 119.999 40.1823 119.999 40.3528C119.999 40.5893 120.086 40.7682 120.261 40.8897C120.435 41.009 120.658 41.0687 120.929 41.0687ZM125.237 38.8123V41.7271H124.281V36.818H125.198V37.617H125.259C125.372 37.357 125.549 37.1482 125.79 36.9905C126.033 36.8329 126.338 36.754 126.707 36.754C127.042 36.754 127.335 36.8244 127.586 36.965C127.837 37.1035 128.032 37.3101 128.171 37.585C128.309 37.8599 128.379 38.1997 128.379 38.6045V41.7271H127.423V38.7196C127.423 38.3638 127.33 38.0857 127.145 37.8854C126.96 37.683 126.705 37.5818 126.381 37.5818C126.159 37.5818 125.962 37.6297 125.79 37.7256C125.619 37.8215 125.484 37.9621 125.384 38.1475C125.286 38.3307 125.237 38.5523 125.237 38.8123ZM129.953 43.568C129.811 43.568 129.681 43.5562 129.563 43.5328C129.446 43.5115 129.359 43.4881 129.301 43.4625L129.532 42.6795C129.706 42.7263 129.862 42.7466 129.998 42.7402C130.135 42.7338 130.255 42.6827 130.359 42.5868C130.466 42.4909 130.56 42.3343 130.641 42.117L130.759 41.791L128.963 36.818H129.985L131.229 40.6276H131.28L132.523 36.818H133.549L131.526 42.3822C131.432 42.6379 131.313 42.8542 131.168 43.031C131.023 43.21 130.85 43.3442 130.65 43.4337C130.45 43.5232 130.218 43.568 129.953 43.568Z" fill="black"/>
</svg>
